<?xml version="1.0" standalone="no"?>
<!DOCTYPE svg PUBLIC "-//W3C//DTD SVG 20010904//EN"
 "http://www.w3.org/TR/2001/REC-SVG-20010904/DTD/svg10.dtd">
<svg version="1.0" xmlns="http://www.w3.org/2000/svg"
 width="392.000000pt" height="637.000000pt" viewBox="0 0 392.000000 637.000000"
 preserveAspectRatio="xMidYMid meet">
<metadata>
Created by potrace 1.16, written by Peter Selinger 2001-2019
</metadata>
<g transform="translate(0.000000,637.000000) scale(0.100000,-0.100000)"
fill="#000000" stroke="none">
<path d="M2026 6149 c18 -5 34 -16 38 -24 5 -13 2 -13 -18 1 -17 11 -26 12
-31 4 -4 -6 -13 -9 -21 -6 -8 3 -14 1 -14 -3 0 -5 6 -12 13 -14 8 -4 7 -6 -3
-6 -8 -1 -28 6 -44 14 -35 19 -40 19 -33 1 7 -19 -17 -28 -32 -13 -9 9 -15 8
-23 -7 -7 -12 -13 -15 -17 -7 -5 7 -12 2 -21 -14 -7 -14 -17 -25 -21 -25 -5 0
-6 -6 -3 -13 3 -8 -14 -19 -48 -31 -29 -11 -57 -22 -63 -26 -5 -4 -21 -11 -35
-15 -14 -4 -39 -18 -57 -31 -17 -13 -36 -24 -41 -24 -5 0 -44 -39 -88 -87 -43
-48 -105 -114 -137 -147 -32 -32 -69 -80 -82 -107 -14 -26 -29 -50 -33 -53 -5
-3 -30 -45 -55 -94 -40 -78 -45 -96 -47 -162 -2 -42 2 -88 9 -105 7 -16 15
-52 18 -80 2 -27 7 -57 10 -65 4 -8 5 -19 4 -24 -1 -4 5 -29 13 -55 8 -25 17
-84 21 -130 3 -47 8 -88 10 -92 3 -4 6 -27 6 -53 1 -25 7 -46 13 -46 8 0 7 -3
0 -8 -9 -5 -8 -10 1 -19 15 -14 19 -1 30 92 6 54 33 133 50 151 6 6 21 14 32
18 20 6 21 5 13 -21 -23 -73 -59 -210 -61 -228 -3 -42 0 -45 42 -41 31 2 46
-1 60 -15 10 -10 39 -24 64 -30 24 -6 50 -17 56 -25 6 -8 18 -14 25 -14 27 0
13 -21 -23 -37 -41 -16 -163 -27 -163 -13 0 5 -8 7 -17 5 -10 -2 -24 -4 -30
-4 -7 -1 -13 -9 -13 -19 0 -10 -6 -24 -13 -31 -10 -11 -9 -12 3 -6 12 7 13 6
3 -6 -12 -15 -11 -63 2 -136 4 -25 4 -43 -1 -43 -14 0 -42 60 -50 105 -4 22
-8 49 -10 59 -4 23 -24 38 -42 31 -7 -3 -10 0 -7 5 3 6 2 10 -4 10 -6 0 -17
-13 -25 -29 -14 -25 -13 -35 1 -85 9 -31 19 -56 23 -56 4 0 5 -12 3 -27 -4
-23 -2 -25 7 -13 9 12 10 10 6 -13 -5 -21 -1 -33 17 -50 12 -12 28 -34 35 -49
6 -16 15 -28 20 -28 4 0 8 -9 8 -20 0 -13 -5 -19 -13 -16 -16 6 -16 1 -3 -24
6 -11 16 -17 23 -14 10 3 11 23 5 86 -4 45 -6 84 -3 86 3 3 5 -5 5 -17 0 -12
8 -43 19 -69 33 -83 41 -117 41 -168 0 -68 16 -119 49 -157 16 -17 52 -63 80
-100 28 -38 65 -80 82 -94 23 -20 29 -31 24 -47 -4 -12 -11 -48 -14 -81 -7
-58 -13 -59 -25 -2 -9 39 -29 34 -75 -22 -46 -54 -75 -116 -67 -138 3 -8 1
-11 -5 -8 -6 4 -7 -3 -3 -21 4 -15 3 -25 -2 -22 -5 4 -10 -8 -11 -26 -3 -48
-48 -152 -64 -148 -8 2 -11 0 -6 -4 11 -11 -23 -43 -39 -37 -8 3 -20 0 -28 -6
-7 -6 -33 -9 -57 -7 -34 4 -57 -2 -104 -25 -33 -16 -69 -29 -80 -29 -34 0
-149 -40 -170 -59 -11 -10 -40 -21 -63 -25 -44 -7 -117 -38 -124 -54 -1 -4
-34 -18 -73 -31 -90 -29 -314 -129 -339 -150 -10 -9 -35 -41 -55 -71 -20 -30
-58 -86 -85 -123 -40 -56 -49 -77 -50 -115 -1 -26 -8 -57 -14 -69 -9 -16 -12
-291 -12 -1117 l0 -1096 1960 0 1960 0 0 1348 0 1348 -52 18 c-29 10 -66 24
-83 32 -43 20 -579 220 -706 263 -59 20 -115 43 -124 51 -10 8 -76 97 -147
197 -71 101 -134 183 -139 183 -5 0 -7 54 -6 128 4 132 17 184 57 227 10 11
28 47 39 80 24 69 24 68 11 60 -5 -3 -10 1 -10 9 0 9 5 16 11 16 6 0 9 6 6 13
-2 6 0 25 4 41 5 16 11 65 15 109 4 51 13 91 25 111 l19 31 -1 -35 c0 -19 -4
-58 -8 -87 -7 -49 -6 -52 17 -56 38 -7 79 40 74 85 -1 3 5 12 13 18 8 7 15 9
15 4 0 -5 9 11 20 35 29 62 40 143 24 179 -11 27 -41 49 -52 37 -3 -3 1 -6 9
-6 8 -1 -4 -5 -26 -8 -22 -4 -45 -3 -51 1 -13 9 -24 -20 -24 -63 0 -14 -7 -34
-16 -45 -14 -18 -15 -16 -11 28 3 26 1 45 -4 42 -5 -3 -9 3 -9 13 0 10 -10 29
-23 43 -12 14 -19 21 -14 14 4 -7 1 -14 -8 -17 -8 -4 -14 -3 -14 1 4 22 -3 33
-16 28 -8 -3 -15 -1 -15 5 0 12 -52 8 -62 -6 -5 -6 -8 -5 -8 4 0 7 -6 11 -15
7 -8 -3 -30 0 -50 7 -34 12 -35 13 -20 35 9 12 23 22 31 22 8 0 14 7 14 15 0
8 3 15 8 15 67 5 109 4 100 -1 -14 -9 3 -17 27 -13 10 1 25 -1 31 -7 8 -6 14
-4 18 7 9 22 8 26 -5 18 -8 -4 -9 1 -4 16 4 14 3 20 -3 16 -6 -4 -7 7 -2 30 5
20 4 48 0 62 -13 38 -19 92 -12 92 10 0 39 -20 30 -20 -4 0 1 -17 12 -37 10
-21 26 -80 34 -131 17 -105 35 -151 36 -90 0 20 4 59 10 85 18 87 21 107 25
168 10 116 14 150 26 200 6 28 11 73 10 102 -1 29 3 71 9 94 16 59 15 237 -2
257 -26 33 -49 82 -43 92 3 6 -1 10 -10 10 -11 0 -14 6 -9 25 4 16 2 25 -6 25
-6 0 -9 4 -5 9 3 6 -26 43 -65 82 -51 53 -69 77 -64 91 3 11 0 20 -10 23 -53
17 -51 16 -36 25 12 8 11 10 -5 11 -11 0 -14 3 -7 6 17 7 15 23 -3 23 -8 0
-15 5 -15 11 0 24 -58 58 -133 78 -27 7 -46 6 -64 -2 -19 -9 -26 -8 -34 4 -5
8 -7 20 -4 27 2 7 -4 12 -15 12 -11 0 -20 5 -20 10 0 15 -49 4 -70 -15 -23
-21 -35 -6 -50 60 -6 26 -15 55 -20 64 -8 13 -10 11 -11 -9 -1 -14 -1 -34 -1
-45 2 -19 1 -19 -16 1 -22 27 -71 59 -79 51 -3 -3 -12 1 -21 10 -14 14 -17 14
-23 -3 -5 -11 -8 -13 -8 -5 -2 26 -50 61 -84 60 l-32 -1 31 -9z m311 -934 c23
-14 43 -30 43 -35 0 -6 5 -10 12 -10 7 0 5 7 -5 18 -11 12 -13 22 -7 32 8 13
12 12 25 -7 9 -13 23 -20 35 -18 11 2 19 1 19 -3 -3 -20 3 -32 16 -32 8 0 15
-4 15 -9 0 -5 14 -14 30 -21 17 -7 28 -15 25 -18 -2 -3 0 -11 7 -19 9 -11 7
-12 -8 -7 -10 4 -25 11 -31 17 -9 6 -13 6 -13 -2 0 -9 -5 -9 -20 -1 -12 6 -52
12 -89 14 -38 1 -76 8 -84 14 -9 8 -18 9 -21 4 -13 -21 -69 -22 -104 -2 -19
12 -37 18 -40 15 -3 -3 0 -5 6 -5 7 0 12 -5 12 -12 0 -17 -23 7 -26 27 -2 10
6 13 27 11 16 -2 26 0 23 5 -6 11 31 30 41 21 5 -4 5 -2 2 4 -11 19 20 39 37
25 9 -7 17 -8 20 -2 3 5 0 12 -6 14 -10 4 -9 6 1 6 8 1 34 -10 58 -24z m-591
-2736 c88 -21 584 -9 623 15 3 2 24 7 46 10 37 6 38 6 21 -11 -10 -10 -53 -73
-97 -141 -60 -92 -88 -127 -114 -139 -19 -9 -32 -19 -30 -22 2 -4 -28 -40 -67
-81 -38 -41 -77 -87 -86 -102 -9 -16 -19 -28 -22 -28 -6 1 -97 147 -120 194
-32 65 -115 183 -174 249 -67 75 -80 95 -48 78 11 -6 41 -16 68 -22z"/>
</g>
</svg>
